<svg width="24" height="24" viewBox="0 0 24 24" fill="none" xmlns="http://www.w3.org/2000/svg">
<g clip-path="url(#clip0_836_2000)">
<path d="M14.8125 22.1953C14.8125 22.6128 14.5664 22.9907 14.1885 23.1577C13.8062 23.3291 13.3228 23.2588 13.0503 22.9776L9.53467 19.8135C9.31494 19.6157 9.1875 19.3301 9.1875 19.0313C9.1875 18.7324 9.31494 18.4468 9.53467 18.249L13.0503 15.085C13.3228 14.8037 13.8062 14.7334 14.1885 14.9048C14.5664 15.0718 14.8125 15.4497 14.8125 15.8672V17.9766H15.5156C17.2646 17.9766 18.6797 16.5615 18.6797 14.8125V7.61867C17.2515 7.17042 16.2188 5.83888 16.2188 4.26564C16.2188 2.32414 17.792 0.750015 19.7344 0.750015C21.6768 0.750015 23.25 2.32414 23.25 4.26564C23.25 5.83888 22.2173 7.17042 20.7891 7.61867V14.8125C20.7891 17.7261 18.4292 20.086 15.5156 20.086H14.8125V22.1953ZM21.1406 4.22609C21.1406 3.48913 20.5122 2.81984 19.7344 2.81984C18.9565 2.81984 18.3281 3.48913 18.3281 4.22609C18.3281 5.04215 18.9565 5.63234 19.7344 5.63234C20.5122 5.63234 21.1406 5.04215 21.1406 4.22609ZM9.1875 1.8047C9.1875 1.3881 9.43359 1.0107 9.81152 0.841245C10.1938 0.671792 10.6377 0.742153 10.9497 1.02076L14.4653 4.18478C14.6851 4.38473 14.8125 4.66994 14.8125 4.96876C14.8125 5.26759 14.6851 5.55324 14.4653 5.75099L10.9497 8.91505C10.6377 9.1963 10.1938 9.26662 9.81152 9.09523C9.43359 8.92824 9.1875 8.55031 9.1875 8.13283V6.02345H8.48438C6.73535 6.02345 5.32031 7.43849 5.32031 9.18751V16.3814C6.74854 16.8296 7.78125 18.1611 7.78125 19.7344C7.78125 21.6768 6.20801 23.25 4.26562 23.25C2.32412 23.25 0.75 21.6768 0.75 19.7344C0.75 18.1611 1.78447 16.8296 3.21094 16.3814V9.18751C3.21094 6.27394 5.5708 3.91408 8.48438 3.91408H9.1875V1.8047ZM2.85938 19.7344C2.85938 20.5122 3.48911 21.1406 4.26562 21.1406C5.04214 21.1406 5.67188 20.5122 5.67188 19.7344C5.67188 18.9566 5.04214 18.3281 4.26562 18.3281C3.48911 18.3281 2.85938 18.9566 2.85938 19.7344Z" fill="#2B3445"/>
</g>
<defs>
<clipPath id="clip0_836_2000">
<rect width="22.5" height="22.5" fill="white" transform="translate(0.75 0.75)"/>
</clipPath>
</defs>
</svg>
