<svg width="18" height="20" viewBox="0 0 18 20" fill="none" xmlns="http://www.w3.org/2000/svg">
<path d="M14.625 13.825C13.9125 13.825 13.275 14.1063 12.7875 14.5469L6.10312 10.6562C6.15 10.4406 6.1875 10.225 6.1875 10C6.1875 9.775 6.15 9.55938 6.10312 9.34375L12.7125 5.49063C13.2188 5.95938 13.8844 6.25 14.625 6.25C16.1812 6.25 17.4375 4.99375 17.4375 3.4375C17.4375 1.88125 16.1812 0.625 14.625 0.625C13.0688 0.625 11.8125 1.88125 11.8125 3.4375C11.8125 3.6625 11.85 3.87812 11.8969 4.09375L5.2875 7.94688C4.78125 7.47813 4.11562 7.1875 3.375 7.1875C1.81875 7.1875 0.5625 8.44375 0.5625 10C0.5625 11.5563 1.81875 12.8125 3.375 12.8125C4.11562 12.8125 4.78125 12.5219 5.2875 12.0531L11.9625 15.9531C11.9156 16.15 11.8875 16.3563 11.8875 16.5625C11.8875 18.0719 13.1156 19.3 14.625 19.3C16.1344 19.3 17.3625 18.0719 17.3625 16.5625C17.3625 15.0531 16.1344 13.825 14.625 13.825Z" fill="#2B3445"/>
</svg>
